<mxfile host="app.diagrams.net" agent="Mozilla/5.0 (Windows NT 10.0; Win64; x64) AppleWebKit/537.36 (KHTML, like Gecko) Chrome/133.0.0.0 Safari/537.36" version="26.0.12">
  <diagram name="Page-1" id="B3GdNuM6HVuEiNvmHSQx">
    <mxGraphModel dx="1434" dy="772" grid="1" gridSize="10" guides="1" tooltips="1" connect="1" arrows="1" fold="1" page="1" pageScale="1" pageWidth="1100" pageHeight="850" math="0" shadow="0">
      <root>
        <mxCell id="0" />
        <mxCell id="1" parent="0" />
        <mxCell id="ye8eEefUQwiRbiV7GAvR-1" value="" style="rounded=0;whiteSpace=wrap;html=1;fillColor=none;dashed=1;dashPattern=8 8;" parent="1" vertex="1">
          <mxGeometry x="10" y="10" width="350" height="830" as="geometry" />
        </mxCell>
        <mxCell id="ye8eEefUQwiRbiV7GAvR-4" value="" style="rounded=0;whiteSpace=wrap;html=1;fillColor=none;dashed=1;dashPattern=8 8;" parent="1" vertex="1">
          <mxGeometry x="370" y="10" width="350" height="830" as="geometry" />
        </mxCell>
        <mxCell id="ye8eEefUQwiRbiV7GAvR-5" value="" style="rounded=0;whiteSpace=wrap;html=1;fillColor=none;dashed=1;dashPattern=8 8;" parent="1" vertex="1">
          <mxGeometry x="730" y="10" width="360" height="830" as="geometry" />
        </mxCell>
        <mxCell id="ye8eEefUQwiRbiV7GAvR-7" value="EMBEDDED" style="text;html=1;align=left;verticalAlign=middle;whiteSpace=wrap;rounded=0;" parent="1" vertex="1">
          <mxGeometry x="20" y="10" width="100" height="30" as="geometry" />
        </mxCell>
        <mxCell id="ye8eEefUQwiRbiV7GAvR-8" value="MOBILE APP - BLYNK" style="text;html=1;align=left;verticalAlign=middle;whiteSpace=wrap;rounded=0;" parent="1" vertex="1">
          <mxGeometry x="380" y="10" width="140" height="30" as="geometry" />
        </mxCell>
        <mxCell id="ye8eEefUQwiRbiV7GAvR-9" value="DESKTOP APP" style="text;html=1;align=left;verticalAlign=middle;whiteSpace=wrap;rounded=0;" parent="1" vertex="1">
          <mxGeometry x="740" y="10" width="100" height="30" as="geometry" />
        </mxCell>
        <mxCell id="RmBcjkk0ZMdXuM9bDO4j-16" value="" style="group" vertex="1" connectable="0" parent="1">
          <mxGeometry x="25" y="95" width="320" height="660" as="geometry" />
        </mxCell>
        <mxCell id="RmBcjkk0ZMdXuM9bDO4j-1" value="Khởi động" style="rounded=0;whiteSpace=wrap;html=1;" vertex="1" parent="RmBcjkk0ZMdXuM9bDO4j-16">
          <mxGeometry x="40" width="240" height="80" as="geometry" />
        </mxCell>
        <mxCell id="RmBcjkk0ZMdXuM9bDO4j-2" value="Cấu hình + Kết nối WiFi" style="rounded=0;whiteSpace=wrap;html=1;" vertex="1" parent="RmBcjkk0ZMdXuM9bDO4j-16">
          <mxGeometry x="40" y="120" width="240" height="80" as="geometry" />
        </mxCell>
        <mxCell id="RmBcjkk0ZMdXuM9bDO4j-4" value="START Blynk Server" style="rounded=0;whiteSpace=wrap;html=1;" vertex="1" parent="RmBcjkk0ZMdXuM9bDO4j-16">
          <mxGeometry x="40" y="240" width="240" height="80" as="geometry" />
        </mxCell>
        <mxCell id="RmBcjkk0ZMdXuM9bDO4j-6" value="Kiểm tra nhiệt độ, độ ẩm" style="rhombus;whiteSpace=wrap;html=1;" vertex="1" parent="RmBcjkk0ZMdXuM9bDO4j-16">
          <mxGeometry y="360" width="200" height="80" as="geometry" />
        </mxCell>
        <mxCell id="RmBcjkk0ZMdXuM9bDO4j-8" value="Nếu có lệnh từ Blynk" style="rhombus;whiteSpace=wrap;html=1;" vertex="1" parent="RmBcjkk0ZMdXuM9bDO4j-16">
          <mxGeometry y="480" width="200" height="80" as="geometry" />
        </mxCell>
        <mxCell id="RmBcjkk0ZMdXuM9bDO4j-10" value="Lặp lại" style="rounded=0;whiteSpace=wrap;html=1;" vertex="1" parent="RmBcjkk0ZMdXuM9bDO4j-16">
          <mxGeometry x="40" y="600" width="120" height="60" as="geometry" />
        </mxCell>
        <mxCell id="RmBcjkk0ZMdXuM9bDO4j-12" value="Xử lí lệnh" style="rounded=0;whiteSpace=wrap;html=1;" vertex="1" parent="RmBcjkk0ZMdXuM9bDO4j-16">
          <mxGeometry x="215" y="490" width="105" height="60" as="geometry" />
        </mxCell>
        <mxCell id="RmBcjkk0ZMdXuM9bDO4j-14" value="Bật hệ thống tưới" style="rounded=0;whiteSpace=wrap;html=1;" vertex="1" parent="RmBcjkk0ZMdXuM9bDO4j-16">
          <mxGeometry x="215" y="370" width="105" height="60" as="geometry" />
        </mxCell>
        <mxCell id="RmBcjkk0ZMdXuM9bDO4j-3" style="edgeStyle=orthogonalEdgeStyle;rounded=0;orthogonalLoop=1;jettySize=auto;html=1;entryX=0.5;entryY=0;entryDx=0;entryDy=0;" edge="1" parent="RmBcjkk0ZMdXuM9bDO4j-16" source="RmBcjkk0ZMdXuM9bDO4j-1" target="RmBcjkk0ZMdXuM9bDO4j-2">
          <mxGeometry relative="1" as="geometry" />
        </mxCell>
        <mxCell id="RmBcjkk0ZMdXuM9bDO4j-5" style="edgeStyle=orthogonalEdgeStyle;rounded=0;orthogonalLoop=1;jettySize=auto;html=1;entryX=0.5;entryY=0;entryDx=0;entryDy=0;" edge="1" parent="RmBcjkk0ZMdXuM9bDO4j-16" source="RmBcjkk0ZMdXuM9bDO4j-2" target="RmBcjkk0ZMdXuM9bDO4j-4">
          <mxGeometry relative="1" as="geometry" />
        </mxCell>
        <mxCell id="RmBcjkk0ZMdXuM9bDO4j-7" style="edgeStyle=orthogonalEdgeStyle;rounded=0;orthogonalLoop=1;jettySize=auto;html=1;exitX=0.25;exitY=1;exitDx=0;exitDy=0;entryX=0.5;entryY=0;entryDx=0;entryDy=0;" edge="1" parent="RmBcjkk0ZMdXuM9bDO4j-16" source="RmBcjkk0ZMdXuM9bDO4j-4" target="RmBcjkk0ZMdXuM9bDO4j-6">
          <mxGeometry relative="1" as="geometry" />
        </mxCell>
        <mxCell id="RmBcjkk0ZMdXuM9bDO4j-9" style="edgeStyle=orthogonalEdgeStyle;rounded=0;orthogonalLoop=1;jettySize=auto;html=1;entryX=0.5;entryY=0;entryDx=0;entryDy=0;" edge="1" parent="RmBcjkk0ZMdXuM9bDO4j-16" source="RmBcjkk0ZMdXuM9bDO4j-6" target="RmBcjkk0ZMdXuM9bDO4j-8">
          <mxGeometry relative="1" as="geometry" />
        </mxCell>
        <mxCell id="RmBcjkk0ZMdXuM9bDO4j-11" style="edgeStyle=orthogonalEdgeStyle;rounded=0;orthogonalLoop=1;jettySize=auto;html=1;entryX=0.5;entryY=0;entryDx=0;entryDy=0;" edge="1" parent="RmBcjkk0ZMdXuM9bDO4j-16" source="RmBcjkk0ZMdXuM9bDO4j-8" target="RmBcjkk0ZMdXuM9bDO4j-10">
          <mxGeometry relative="1" as="geometry" />
        </mxCell>
        <mxCell id="RmBcjkk0ZMdXuM9bDO4j-13" style="edgeStyle=orthogonalEdgeStyle;rounded=0;orthogonalLoop=1;jettySize=auto;html=1;entryX=0;entryY=0.5;entryDx=0;entryDy=0;" edge="1" parent="RmBcjkk0ZMdXuM9bDO4j-16" source="RmBcjkk0ZMdXuM9bDO4j-8" target="RmBcjkk0ZMdXuM9bDO4j-12">
          <mxGeometry relative="1" as="geometry" />
        </mxCell>
        <mxCell id="RmBcjkk0ZMdXuM9bDO4j-15" style="edgeStyle=orthogonalEdgeStyle;rounded=0;orthogonalLoop=1;jettySize=auto;html=1;entryX=0;entryY=0.5;entryDx=0;entryDy=0;" edge="1" parent="RmBcjkk0ZMdXuM9bDO4j-16" source="RmBcjkk0ZMdXuM9bDO4j-6" target="RmBcjkk0ZMdXuM9bDO4j-14">
          <mxGeometry relative="1" as="geometry" />
        </mxCell>
      </root>
    </mxGraphModel>
  </diagram>
</mxfile>
